<svg id="Layer_1" data-name="Layer 1" xmlns="http://www.w3.org/2000/svg" viewBox="0 0 80 80.08"><defs><style>.cls-1{fill:#575756;}</style></defs><path class="cls-1" d="M28.5,30.18h-7a2.05,2.05,0,0,1-2.1-2.1v-7A2.05,2.05,0,0,1,21.5,19h7a2.05,2.05,0,0,1,2.1,2.1v7A2,2,0,0,1,28.5,30.18Z"/><path class="cls-1" d="M43.7,30.18h-7a2.05,2.05,0,0,1-2.1-2.1v-7A2.05,2.05,0,0,1,36.7,19h7a2.05,2.05,0,0,1,2.1,2.1v7A2,2,0,0,1,43.7,30.18Z"/><path class="cls-1" d="M59,30.18H52a2.05,2.05,0,0,1-2.1-2.1v-7A2.05,2.05,0,0,1,52,19h7a2.05,2.05,0,0,1,2.1,2.1v7A2.11,2.11,0,0,1,59,30.18Z"/><path class="cls-1" d="M28.5,45.38h-7a2.05,2.05,0,0,1-2.1-2.1v-7a2.05,2.05,0,0,1,2.1-2.1h7a2.05,2.05,0,0,1,2.1,2.1v7A2,2,0,0,1,28.5,45.38Z"/><path class="cls-1" d="M43.7,45.38h-7a2.05,2.05,0,0,1-2.1-2.1v-7a2.05,2.05,0,0,1,2.1-2.1h7a2.05,2.05,0,0,1,2.1,2.1v7A2,2,0,0,1,43.7,45.38Z"/><path class="cls-1" d="M59,45.38H52a2.05,2.05,0,0,1-2.1-2.1v-7a2.05,2.05,0,0,1,2.1-2.1h7a2.05,2.05,0,0,1,2.1,2.1v7A2.11,2.11,0,0,1,59,45.38Z"/><path class="cls-1" d="M28.5,60.58h-7a2.05,2.05,0,0,1-2.1-2.1v-7a2.05,2.05,0,0,1,2.1-2.1h7a2.05,2.05,0,0,1,2.1,2.1v7A2,2,0,0,1,28.5,60.58Z"/><path class="cls-1" d="M43.7,60.58h-7a2.05,2.05,0,0,1-2.1-2.1v-7a2.05,2.05,0,0,1,2.1-2.1h7a2.05,2.05,0,0,1,2.1,2.1v7A2,2,0,0,1,43.7,60.58Z"/><path class="cls-1" d="M59,60.58H52a2.05,2.05,0,0,1-2.1-2.1v-7a2.05,2.05,0,0,1,2.1-2.1h7a2.05,2.05,0,0,1,2.1,2.1v7A2.11,2.11,0,0,1,59,60.58Z"/><path class="cls-1" d="M69.38,12.81,50.5,2.67a22.18,22.18,0,0,0-21.1,0L10.57,12.81A19.45,19.45,0,0,0,0,29.89V50.22A19.49,19.49,0,0,0,10.57,67.3L29.45,77.45a22.46,22.46,0,0,0,21.1,0L69.43,67.3A19.53,19.53,0,0,0,80,50.22V29.89A19.68,19.68,0,0,0,69.38,12.81Zm9.08,37A18.74,18.74,0,0,1,68.27,66.27L50.11,76.05a21.63,21.63,0,0,1-20.32,0L11.64,66.27A18.72,18.72,0,0,1,1.45,49.82V30.25A18.72,18.72,0,0,1,11.64,13.8L29.79,4A21.63,21.63,0,0,1,50.11,4L68.27,13.8A18.84,18.84,0,0,1,78.46,30.25Z"/></svg>