<svg id="Layer_1" data-name="Layer 1" xmlns="http://www.w3.org/2000/svg" viewBox="0 0 79.67 80"><defs><style>.cls-1{fill:#575756;}</style></defs><path class="cls-1" d="M60.05,46.86v8.79c0,2.11-1,3-3,3H44.32c-1.14,0-1.23-.09-1.23-1.32V48.71a3.4,3.4,0,0,0-4.57-3.34,3.65,3.65,0,0,0-2.2,3.43v8.44c0,1.32-.09,1.41-1.41,1.41H22.34c-2.11,0-3.08-1-3.08-3.08V38.08a4.49,4.49,0,0,1,1.49-3.52C26.37,29,31.91,23.4,37.53,17.78c1.49-1.49,2.81-1.49,4.31,0L58.62,34.56a4.77,4.77,0,0,1,1.49,3.52C60,41,60.05,44,60.05,46.86ZM22.44,44.05v3.34c0,.53.09,1,.7,1s.7-.44.7-.88V41a1.38,1.38,0,0,0-.7-1c-.62-.09-.7.44-.7,1Zm0,7.47a2.83,2.83,0,0,0,0,.88,6.2,6.2,0,0,0,.7.79,5.13,5.13,0,0,0,.7-.7,1.47,1.47,0,0,0,0-.88c0-.62.18-1.41-.7-1.41C22.08,50.2,22.44,51.08,22.44,51.52Z"/><path class="cls-1" d="M69.1,12.8,50.3,2.67a22,22,0,0,0-21,0L10.53,12.8A19.41,19.41,0,0,0,0,29.86V50.17A19.49,19.49,0,0,0,10.53,67.24l18.8,10.13a22.28,22.28,0,0,0,21,0l18.8-10.13A19.51,19.51,0,0,0,79.67,50.17V29.86A19.62,19.62,0,0,0,69.1,12.8Zm9,37A18.72,18.72,0,0,1,68,66.2L49.91,76a21.47,21.47,0,0,1-20.24,0L11.59,66.2A18.72,18.72,0,0,1,1.44,49.77V30.22A18.71,18.71,0,0,1,11.59,13.79L29.67,4A21.47,21.47,0,0,1,49.91,4L68,13.79A18.8,18.8,0,0,1,78.14,30.22Z"/></svg>