<?xml version="1.0" encoding="utf-8"?>
<!-- Generator: Adobe Illustrator 26.1.0, SVG Export Plug-In . SVG Version: 6.00 Build 0)  -->
<svg version="1.1" id="Layer_1" xmlns="http://www.w3.org/2000/svg" xmlns:xlink="http://www.w3.org/1999/xlink" x="0px" y="0px"
	 viewBox="0 0 80 80" style="enable-background:new 0 0 80 80;" xml:space="preserve">
<style type="text/css">
	.st0{fill:#ED1846;}
	.st1{fill:#FFFFFF;}
</style>
<path class="st0" d="M69.4,12.8L50.6,2.7c-6.5-3.6-14.6-3.6-21.1,0L10.7,12.8c-6.6,3.5-10.6,10-10.6,17.1v20.3c0,7,4,13.6,10.6,17.1
	l18.8,10.1c6.5,3.5,14.6,3.5,21.1,0l18.8-10.1C76,63.7,80,57.2,80,50.2V29.9C80,22.8,75.9,16.3,69.4,12.8z"/>
<g>
	<path class="st1" d="M53.2,66.7c-0.6,0-1.1,0-1.7,0c-2.6,0-5.1,0-7.7,0c-0.3,0-0.3-0.1-0.4-0.3c-0.6-2.8-1.1-5.5-1.3-8.3
		c-0.2-2.9,0.3-5.6,1.7-8.2c0.8-1.4,2-2.4,3.4-3.2c2.1-1.2,4.1-2.3,6.2-3.6c0.8-0.4,1.7-0.6,2.5-0.3c0.9,0.3,1.5,1,1.6,2.1
		c0.1,1-0.3,1.7-1,2.1c-1.4,0.9-2.8,1.8-4.2,2.7c-0.9,0.5-1.7,1.1-2.5,1.7c-0.5,0.3-0.6,0.9-0.3,1.3c0.3,0.4,0.8,0.5,1.3,0.2
		c1.4-0.9,2.8-1.7,4.2-2.7c0.9-0.6,1.7-1.2,2.6-1.9c1.5-1.1,2.1-2.7,2.1-4.4c0-2.5,0-5,0-7.5c0-0.4,0-1,0.1-1.4
		c0.3-1.9,2.4-2.8,3.8-1.7c0.7,0.6,1,1.4,1,2.3c0,2.7,0,5.5,0,8.2c0,1,0,2.1,0,3.2c0,0.7-0.2,1.5-0.4,2.2c-0.6,1.5-1.5,2.8-2.5,4.1
		c-1.6,1.7-3.1,3.5-4.7,5.3c-1.3,1.6-2.3,3.3-3,5.2C53.3,64.7,53.2,65.6,53.2,66.7z"/>
	<path class="st1" d="M27,66.8c0-0.5-0.1-1-0.2-1.5c-0.3-1.6-0.9-3-1.7-4.4c-1.3-2.1-2.9-3.9-4.5-5.7c-1-1.1-2.1-2.3-3-3.6
		c-1.2-1.7-1.9-3.5-1.8-5.5c0-3.5,0-6.9,0-10.3c0-0.6,0.2-1.3,0.5-1.7c0.5-0.7,1.3-1,2.2-1c1,0.1,1.6,0.6,1.9,1.5
		c0.2,0.4,0.2,0.9,0.2,1.3c0,2.6,0,5.3,0,7.9c0,2.1,0.7,3.8,2.4,5c2.1,1.6,4.2,3,6.5,4.2c0.4,0.3,0.9,0.2,1.1,0
		c0.3-0.3,0.4-0.6,0.3-1c-0.1-0.2-0.3-0.4-0.4-0.5c-1.4-1-2.8-1.8-4.2-2.8c-0.8-0.5-1.6-1-2.3-1.6c-1.1-0.8-1.5-1.9-1-3
		c0.5-1.1,1.7-1.7,3-1.4c0.5,0.2,1,0.4,1.5,0.7c1.8,1,3.6,2.1,5.4,3.1c2.8,1.6,4.3,3.9,5,7c0.5,2.3,0.4,4.7,0.1,6.9
		c-0.3,2-0.7,3.9-1,5.9c0,0.2-0.2,0.3-0.3,0.3C33.4,66.8,27.1,66.8,27,66.8z"/>
	<path class="st1" d="M24.5,19.5c0.4-0.3,0.9-0.5,1.3-0.8c4.2-2.3,8.4-4.8,12.6-7.2c1.1-0.6,2.2-0.7,3.4,0c4.4,2.6,8.9,5.2,13.5,7.8
		c0.1,0,0.2,0.1,0.3,0.2c-0.1,0.1-0.2,0.1-0.2,0.2c-4.4,2.5-8.8,5.1-13.3,7.6c-0.6,0.4-1.2,0.7-1.7,1c-0.2,0.1-0.3,0.1-0.4,0
		c-3.7-2.2-7.5-4.3-11.2-6.4c-1.3-0.7-2.5-1.5-3.8-2.2C24.8,19.7,24.7,19.6,24.5,19.5z"/>
	<path class="st1" d="M42,45.5c0-0.6,0-1.3,0-1.8c0-3.9,0-7.8,0-11.7c0-0.3,0.1-0.3,0.3-0.4c4.6-2.6,9.2-5.3,13.8-7.9
		c0.1,0,0.2-0.1,0.3-0.2c0,0.1,0,0.2,0,0.3c0,3.9,0,7.8,0,11.7c0,1.1-0.4,2-1.5,2.5c-4.2,2.4-8.4,4.9-12.6,7.3
		C42.1,45.3,42.1,45.4,42,45.5z"/>
	<path class="st1" d="M23.9,23.4c0.4,0.2,0.8,0.4,1,0.6c4.3,2.5,8.7,5,13.1,7.6c0.2,0.1,0.3,0.2,0.3,0.4c0,4.4,0,8.8,0,13.3
		c0,0.1,0,0.1,0,0.3c-0.2-0.1-0.2-0.1-0.3-0.2c-3.4-2-6.9-4-10.2-6c-0.8-0.4-1.5-0.9-2.3-1.3c-1-0.6-1.5-1.5-1.5-2.6
		c0-2.9,0-5.7,0-8.7C23.9,25.6,23.9,24.6,23.9,23.4z"/>
</g>
</svg>
