<svg id="Layer_1" data-name="Layer 1" xmlns="http://www.w3.org/2000/svg" viewBox="0 0 80 80"><defs><style>.cls-1{fill:#575756;}</style></defs><path class="cls-1" d="M69.38,12.8,50.5,2.67a22.18,22.18,0,0,0-21.1,0L10.57,12.8A19.41,19.41,0,0,0,0,29.86V50.17A19.5,19.5,0,0,0,10.57,67.24L29.45,77.37a22.46,22.46,0,0,0,21.1,0L69.43,67.24A19.53,19.53,0,0,0,80,50.17V29.86A19.63,19.63,0,0,0,69.38,12.8Zm9.08,37A18.72,18.72,0,0,1,68.27,66.2L50.11,76a21.63,21.63,0,0,1-20.32,0L11.64,66.2A18.7,18.7,0,0,1,1.45,49.77V30.22A18.69,18.69,0,0,1,11.64,13.79L29.79,4A21.63,21.63,0,0,1,50.11,4l18.16,9.77A18.81,18.81,0,0,1,78.46,30.22Z"/><path class="cls-1" d="M14.15,38.87c.09-.32.14-.63.24-.95a7,7,0,0,1,6.66-4.86h.58A16.72,16.72,0,0,1,29.31,20.5,18.61,18.61,0,0,1,40,17.3a18.66,18.66,0,0,1,12.41,4.55A16.42,16.42,0,0,1,58.27,33c.68.09,1.36.09,2,.23a6.62,6.62,0,0,1,5.51,6.21,47.82,47.82,0,0,1-.1,5.22,6.65,6.65,0,0,1-6.37,5.5q-1.23.06-2.46,0a1.51,1.51,0,0,1-1.69-1.63v-14a13,13,0,0,0-3.34-9,15,15,0,0,0-15.59-4.77c-6.28,1.57-9.95,5.54-11.15,11.39a10.55,10.55,0,0,0-.2,2.52V48.41c0,1.17-.38,1.67-1.59,1.76-3.76.41-7-.81-8.54-4a16.3,16.3,0,0,1-.58-1.75Z"/><path class="cls-1" d="M40,62.64H38a3.19,3.19,0,0,1-3.24-3,3.12,3.12,0,0,1,3.14-3q2.1-.06,4.2,0a3.06,3.06,0,0,1,3.09,3,3.14,3.14,0,0,1-3.18,3C41.33,62.69,40.65,62.64,40,62.64Z"/><path class="cls-1" d="M33,59.67h0a.92.92,0,0,1-.87.86c-5.22.18-9.71-3.25-10.87-7.52a.85.85,0,0,1,.87-1h0a.82.82,0,0,1,.82.59c1.5,4.09,4.59,6.17,9.13,6.3A.89.89,0,0,1,33,59.67Z"/></svg>