<svg id="Layer_1" data-name="Layer 1" xmlns="http://www.w3.org/2000/svg" viewBox="0 0 79.67 80"><defs><style>.cls-1{fill:#575756;}</style></defs><path class="cls-1" d="M50,42.3a12.8,12.8,0,0,1,3.89.85,16.13,16.13,0,0,1,10,10.27.83.83,0,0,1-.16.93,27.88,27.88,0,0,1-46.81.3A1.58,1.58,0,0,1,16.69,53C19.1,46.87,23.45,43.3,30,42.37h.46a5,5,0,0,0,3.43,3.89,15.72,15.72,0,0,0,12.83,0,6.47,6.47,0,0,0,.93-.55A4.44,4.44,0,0,0,50,42.3Z"/><path class="cls-1" d="M40.25,12.74A12.62,12.62,0,0,1,51.6,20.67a13.7,13.7,0,0,1,.85,7.08,26.19,26.19,0,0,1-1.4,6.45,16.27,16.27,0,0,1-4.82,7.23,8.86,8.86,0,0,1-6.45,2.26,9.59,9.59,0,0,1-6-2.64,16,16,0,0,1-3.89-5.52,23.94,23.94,0,0,1-2-10.34,12.64,12.64,0,0,1,9.8-12A10.1,10.1,0,0,1,40.25,12.74Z"/><path class="cls-1" d="M69.1,12.8,50.3,2.67a22,22,0,0,0-21,0L10.53,12.8A19.41,19.41,0,0,0,0,29.86V50.17A19.49,19.49,0,0,0,10.53,67.24l18.8,10.13a22.28,22.28,0,0,0,21,0l18.8-10.13A19.51,19.51,0,0,0,79.67,50.17V29.86A19.62,19.62,0,0,0,69.1,12.8Zm9,37A18.72,18.72,0,0,1,68,66.2L49.91,76a21.47,21.47,0,0,1-20.24,0L11.59,66.2A18.72,18.72,0,0,1,1.44,49.77V30.22A18.71,18.71,0,0,1,11.59,13.79L29.67,4A21.47,21.47,0,0,1,49.91,4L68,13.79A18.8,18.8,0,0,1,78.14,30.22Z"/></svg>