<?xml version="1.0" encoding="utf-8"?>
<!-- Generator: Adobe Illustrator 26.3.1, SVG Export Plug-In . SVG Version: 6.00 Build 0)  -->
<svg version="1.1" id="Layer_1" xmlns="http://www.w3.org/2000/svg" xmlns:xlink="http://www.w3.org/1999/xlink" x="0px" y="0px"
	 viewBox="0 0 80 80.1" style="enable-background:new 0 0 80 80.1;" xml:space="preserve">
<style type="text/css">
	.st0{fill:#FFFFFF;}
</style>
<path class="st0" d="M28.5,30.2h-7c-1.1,0-2.1-0.9-2.1-2c0,0,0-0.1,0-0.1v-7c0-1.1,0.9-2.1,2-2.1c0,0,0.1,0,0.1,0h7
	c1.1,0,2.1,0.9,2.1,2c0,0,0,0.1,0,0.1v7c0,1.1-0.8,2-1.9,2.1C28.6,30.2,28.6,30.2,28.5,30.2z"/>
<path class="st0" d="M43.7,30.2h-7c-1.1,0-2.1-0.9-2.1-2c0,0,0-0.1,0-0.1v-7c0-1.1,0.9-2.1,2-2.1c0,0,0.1,0,0.1,0h7
	c1.1,0,2.1,0.9,2.1,2c0,0,0,0.1,0,0.1v7c0,1.1-0.8,2-1.9,2.1C43.8,30.2,43.8,30.2,43.7,30.2z"/>
<path class="st0" d="M59,30.2h-7c-1.1,0-2.1-0.9-2.1-2c0,0,0-0.1,0-0.1v-7c0-1.1,0.9-2.1,2-2.1c0,0,0.1,0,0.1,0h7
	c1.1,0,2.1,0.9,2.1,2c0,0,0,0.1,0,0.1v7C61.1,29.2,60.1,30.2,59,30.2z"/>
<path class="st0" d="M28.5,45.4h-7c-1.1,0-2.1-0.9-2.1-2c0,0,0-0.1,0-0.1v-7c0-1.1,0.9-2.1,2-2.1c0,0,0.1,0,0.1,0h7
	c1.1,0,2.1,0.9,2.1,2c0,0,0,0.1,0,0.1v7c0.1,1.1-0.8,2-1.9,2.1C28.6,45.4,28.6,45.4,28.5,45.4z"/>
<path class="st0" d="M43.7,45.4h-7c-1.1,0-2.1-0.9-2.1-2c0,0,0-0.1,0-0.1v-7c0-1.1,0.9-2.1,2-2.1c0,0,0.1,0,0.1,0h7
	c1.1,0,2.1,0.9,2.1,2c0,0,0,0.1,0,0.1v7c0.1,1.1-0.8,2-1.9,2.1C43.8,45.4,43.8,45.4,43.7,45.4z"/>
<path class="st0" d="M59,45.4h-7c-1.1,0-2.1-0.9-2.1-2c0,0,0-0.1,0-0.1v-7c0-1.1,0.9-2.1,2-2.1c0,0,0.1,0,0.1,0h7
	c1.1,0,2.1,0.9,2.1,2c0,0,0,0.1,0,0.1v7C61.1,44.4,60.2,45.4,59,45.4z"/>
<path class="st0" d="M28.5,60.6h-7c-1.1,0-2.1-0.9-2.1-2c0,0,0-0.1,0-0.1v-7c0-1.1,0.9-2.1,2-2.1c0,0,0.1,0,0.1,0h7
	c1.1,0,2.1,0.9,2.1,2c0,0,0,0.1,0,0.1v7c0.1,1.1-0.8,2-1.9,2.1C28.6,60.6,28.6,60.6,28.5,60.6z"/>
<path class="st0" d="M43.7,60.6h-7c-1.1,0-2.1-0.9-2.1-2c0,0,0-0.1,0-0.1v-7c0-1.1,0.9-2.1,2-2.1c0,0,0.1,0,0.1,0h7
	c1.1,0,2.1,0.9,2.1,2c0,0,0,0.1,0,0.1v7c0.1,1.1-0.8,2-1.9,2.1C43.8,60.6,43.8,60.6,43.7,60.6z"/>
<path class="st0" d="M59,60.6h-7c-1.1,0-2.1-0.9-2.1-2c0,0,0-0.1,0-0.1v-7c0-1.1,0.9-2.1,2-2.1c0,0,0.1,0,0.1,0h7
	c1.1,0,2.1,0.9,2.1,2c0,0,0,0.1,0,0.1v7C61.1,59.6,60.2,60.6,59,60.6z"/>
<path class="st0" d="M69.4,12.8L50.5,2.7c-6.6-3.6-14.5-3.6-21.1,0L10.6,12.8C4.2,16.1,0.1,22.7,0,29.9v20.3
	C0.1,57.4,4.2,64,10.6,67.3l18.9,10.1C36,81,44,81,50.6,77.4l18.9-10.1C75.8,64,79.9,57.4,80,50.2V29.9
	C79.9,22.7,75.8,16.1,69.4,12.8z M78.5,49.8c-0.1,7-4,13.3-10.2,16.5L50.1,76c-6.4,3.4-14,3.4-20.3,0l-18.2-9.8
	C5.5,63.1,1.5,56.8,1.5,49.8V30.2c0.1-6.9,4-13.3,10.2-16.4L29.8,4c6.4-3.4,14-3.4,20.3,0l18.2,9.8c6.2,3.2,10.1,9.5,10.2,16.4V49.8
	z"/>
</svg>
