<?xml version="1.0" encoding="utf-8"?>
<!-- Generator: Adobe Illustrator 26.3.1, SVG Export Plug-In . SVG Version: 6.00 Build 0)  -->
<svg version="1.1" id="Layer_1" xmlns="http://www.w3.org/2000/svg" xmlns:xlink="http://www.w3.org/1999/xlink" x="0px" y="0px"
	 viewBox="0 0 79.7 80" style="enable-background:new 0 0 79.7 80;" xml:space="preserve">
<style type="text/css">
	.st0{fill:#FFFFFF;}
</style>
<path class="st0" d="M60,46.9v8.8c0,2.1-1,3-3,3H44.3c-1.1,0-1.2-0.1-1.2-1.3v-8.6c0.1-1.9-1.4-3.5-3.2-3.5c-0.4,0-0.9,0.1-1.3,0.2
	c-1.4,0.6-2.2,1.9-2.2,3.4v8.4c0,1.3-0.1,1.4-1.4,1.4H22.3c-2.1,0-3.1-1-3.1-3.1V38.1c-0.1-1.3,0.5-2.6,1.5-3.5
	c5.6-5.6,11.2-11.2,16.8-16.8c1.5-1.5,2.8-1.5,4.3,0l16.8,16.8c1,0.9,1.5,2.2,1.5,3.5C60,41,60,44,60,46.9z M22.4,44v3.3
	c0,0.5,0.1,1,0.7,1s0.7-0.4,0.7-0.9V41c-0.1-0.4-0.3-0.8-0.7-1c-0.6-0.1-0.7,0.4-0.7,1V44z M22.4,51.5c0,0.3,0,0.6,0,0.9
	c0.2,0.3,0.4,0.5,0.7,0.8c0.3-0.2,0.5-0.4,0.7-0.7c0.1-0.3,0.1-0.6,0-0.9c0-0.6,0.2-1.4-0.7-1.4C22.1,50.2,22.4,51.1,22.4,51.5z"/>
<path class="st0" d="M69.1,12.8L50.3,2.7c-6.5-3.6-14.5-3.6-21,0L10.5,12.8C4.1,16.1,0.1,22.7,0,29.9v20.3
	c0.1,7.2,4.1,13.8,10.5,17.1l18.8,10.1c6.6,3.5,14.4,3.5,21,0l18.8-10.1c6.4-3.3,10.4-9.9,10.5-17.1V29.9
	C79.5,22.7,75.5,16.1,69.1,12.8z M78.1,49.8C78,56.7,74.1,63,68,66.2L49.9,76c-6.3,3.4-13.9,3.4-20.2,0l-18.1-9.8
	C5.4,63,1.5,56.7,1.4,49.8V30.2c0.1-6.9,4-13.3,10.1-16.4L29.7,4C36,0.6,43.6,0.6,49.9,4L68,13.8c6.1,3.2,10,9.5,10.1,16.4
	L78.1,49.8z"/>
</svg>
