<svg xmlns="http://www.w3.org/2000/svg" viewBox="0 0 411.55 73.96"><defs><style>.cls-1{fill:#fff;}</style></defs><g id="SHIZCK"><path class="cls-1" d="M221.91,47.46a1.57,1.57,0,0,1-.55-.59,1.82,1.82,0,0,1-.2-.83,1.7,1.7,0,0,1,.2-.81,1.67,1.67,0,0,1,.55-.6,1.49,1.49,0,0,1,.76-.22h4.23l.56-1.7h-4.79a2.86,2.86,0,0,0-1.56.45A3.16,3.16,0,0,0,220,44.37a3.53,3.53,0,0,0,0,3.34,3.22,3.22,0,0,0,1.14,1.23,2.89,2.89,0,0,0,1.56.45h7.48V47.68h-7.48A1.4,1.4,0,0,1,221.91,47.46Z"/><path class="cls-1" d="M248.1,45.53a2.12,2.12,0,0,1-.28,1.08,2,2,0,0,1-.73.78,1.79,1.79,0,0,1-1,.29h-1.5a1.77,1.77,0,0,1-1-.29,2,2,0,0,1-.73-.78,2.22,2.22,0,0,1-.27-1.08V41.67H241v3.86a2.22,2.22,0,0,1-.27,1.08,2,2,0,0,1-.73.78,1.77,1.77,0,0,1-1,.29,1.8,1.8,0,0,1-1-.29,2,2,0,0,1-.73-.78,2.22,2.22,0,0,1-.27-1.08,4,4,0,0,0-.48-1.93,3.87,3.87,0,0,0-1.31-1.41,3.38,3.38,0,0,0-1.81-.52h-1.72v1.72h1.72a1.8,1.8,0,0,1,1,.29,2,2,0,0,1,.73.78,2.28,2.28,0,0,1,0,2.15,2,2,0,0,1-.73.78,1.8,1.8,0,0,1-1,.29h-2.09v1.71h2.09A3.28,3.28,0,0,0,235,49a3.48,3.48,0,0,0,1.2-1.12A3.63,3.63,0,0,0,237.42,49a3.39,3.39,0,0,0,1.56.41h0a3.24,3.24,0,0,0,1.58-.41,3.7,3.7,0,0,0,1.21-1.12A3.48,3.48,0,0,0,243,49a3.3,3.3,0,0,0,1.59.41h1.5a3.33,3.33,0,0,0,1.79-.52,3.78,3.78,0,0,0,1.31-1.41,3.87,3.87,0,0,0,.49-1.93V41.67H248.1Z"/><path class="cls-1" d="M290.17,42.19a3.87,3.87,0,0,0-1.31,1.41,4,4,0,0,0-.48,1.94,3.88,3.88,0,0,0,.5,1.9,4,4,0,0,0,1.3,1.42,3,3,0,0,0,1.67.53h1.8v-.75l-6,4.3.89,1.42,7-5V45.54a3.75,3.75,0,0,0-3.6-3.87h0A3.37,3.37,0,0,0,290.17,42.19ZM294,47.68h-2a1.8,1.8,0,0,1-1-.29,2.08,2.08,0,0,1-.72-.78,2.26,2.26,0,0,1-.27-1.2,2.22,2.22,0,0,1,.21-.85,2.14,2.14,0,0,1,.79-.89,1.79,1.79,0,0,1,1-.29h0a2.08,2.08,0,0,1,2,2.15Z"/><path class="cls-1" d="M298.75,49.38h8.37a3.28,3.28,0,0,0,1.8-.52,3.68,3.68,0,0,0,1.31-1.4,4,4,0,0,0,.48-1.93V41.66h-1.6v3.87a2.21,2.21,0,0,1-.26,1.08,2.11,2.11,0,0,1-.73.78,1.9,1.9,0,0,1-1,.29h-8.37"/><path class="cls-1" d="M322.71,42.2a3.33,3.33,0,0,0-1.82-.52H318l-.38,1.7h3.27a1.89,1.89,0,0,1,1,.29,2.08,2.08,0,0,1,.72.78,2.22,2.22,0,0,1,.27,1.08v2.15H316a1.89,1.89,0,0,1-1-.29,2,2,0,0,1-.73-.78,2.22,2.22,0,0,1-.27-1.08V36.77h-1.59v8.76a3.86,3.86,0,0,0,.49,1.92,3.78,3.78,0,0,0,1.31,1.41,3.28,3.28,0,0,0,1.8.52h8.48V45.53A4,4,0,0,0,324,43.6,3.86,3.86,0,0,0,322.71,42.2Z"/><rect class="cls-1" x="347" y="36.21" width="1.6" height="9.35"/><path class="cls-1" d="M358.17,41.1V45a2.21,2.21,0,0,1-.26,1.08,2.08,2.08,0,0,1-.72.78,1.8,1.8,0,0,1-1,.29,1.77,1.77,0,0,1-1-.29,2.08,2.08,0,0,1-.72-.78,2.22,2.22,0,0,1-.27-1.08V36.21h-1.58V45a2.22,2.22,0,0,1-.27,1.08,2.11,2.11,0,0,1-.73.78,1.83,1.83,0,0,1-1,.29h-4.54v1.71h4.54a3.29,3.29,0,0,0,1.8-.53,3.59,3.59,0,0,0,1-1,3.55,3.55,0,0,0,1.18,1.07,3,3,0,0,0,1.53.41h.05a3.37,3.37,0,0,0,1.8-.52,3.78,3.78,0,0,0,1.31-1.41,3.87,3.87,0,0,0,.49-1.93V41.11Z"/><rect class="cls-1" x="361.37" y="36.21" width="1.61" height="12.61"/><polygon class="cls-1" points="362.99 33.57 359.28 33.57 359.28 35.03 365.08 35.03 365.08 33.57 362.99 32.7 362.99 33.57"/><path class="cls-1" d="M377.36,45a2.22,2.22,0,0,1-.27,1.08,1.94,1.94,0,0,1-.72.78,1.77,1.77,0,0,1-1,.29,1.8,1.8,0,0,1-1-.29,2.13,2.13,0,0,1-.74-.78,2.29,2.29,0,0,1-.27-1.09h0a3.72,3.72,0,0,0-3.58-3.84h0a3.28,3.28,0,0,0-1.79.53,3.75,3.75,0,0,0-1.31,1.4,3.86,3.86,0,0,0-.49,1.92,4,4,0,0,0,.79,2.41,3.75,3.75,0,0,0,.65.67,3.38,3.38,0,0,0,4,.26,3.67,3.67,0,0,0,1-1,3.55,3.55,0,0,0,1.18,1.07,3.09,3.09,0,0,0,1.54.41h.06a3.38,3.38,0,0,0,2.16-.78,3.7,3.7,0,0,0,.64-.67A4,4,0,0,0,379,45V41.11h-1.6Zm-5.61,0a2.22,2.22,0,0,1-.27,1.08,2.08,2.08,0,0,1-.72.78,1.8,1.8,0,0,1-1,.29,1.77,1.77,0,0,1-1-.29,2,2,0,0,1-.73-.78,2.22,2.22,0,0,1-.27-1.08A2.18,2.18,0,0,1,368,43.9a2,2,0,0,1,.73-.78,1.77,1.77,0,0,1,1-.29h0a2.07,2.07,0,0,1,2,2.14Z"/><path class="cls-1" d="M391.56,41.63a3.43,3.43,0,0,0-1.81-.52h0a3.74,3.74,0,0,0-3.6,3.86h0a2.22,2.22,0,0,1-.27,1.08,2,2,0,0,1-.73.78,1.79,1.79,0,0,1-1,.29,1.83,1.83,0,0,1-1-.29,2.11,2.11,0,0,1-.73-.78,2.22,2.22,0,0,1-.27-1.08V36.21h-1.58V45a3.93,3.93,0,0,0,.71,2.3,3.73,3.73,0,0,0,.62.69,3.32,3.32,0,0,0,2.23.86h0a3.19,3.19,0,0,0,1.6-.42A3.41,3.41,0,0,0,387,47.29a3.51,3.51,0,0,0,1.21,1.12,3.14,3.14,0,0,0,1.58.42,3.43,3.43,0,0,0,1.81-.52,3.78,3.78,0,0,0,1.31-1.41,4.12,4.12,0,0,0,0-3.86A3.78,3.78,0,0,0,391.56,41.63Zm-.08,4.42a2,2,0,0,1-.73.78,1.77,1.77,0,0,1-1,.29,1.79,1.79,0,0,1-1-.29,2.08,2.08,0,0,1-.72-.78,2.22,2.22,0,0,1-.27-1.08h0a2.06,2.06,0,0,1,2-2.13h0a1.77,1.77,0,0,1,1,.29,2.08,2.08,0,0,1,.73.77,2.29,2.29,0,0,1,0,2.16Z"/><path class="cls-1" d="M398.54,47.12a1.8,1.8,0,0,1-1-.29,2,2,0,0,1-.73-.78,2.22,2.22,0,0,1-.27-1.08V36.21h-1.59V45a3.86,3.86,0,0,0,.49,1.92,3.78,3.78,0,0,0,1.31,1.41,3.26,3.26,0,0,0,1.76.52h13.05V47.12Z"/><path class="cls-1" d="M283.62,41.67v3.87a2.22,2.22,0,0,1-.27,1.08,2.06,2.06,0,0,1-.74.78,1.85,1.85,0,0,1-1,.29H266.86a1.89,1.89,0,0,1-1-.29,2.08,2.08,0,0,1-.72-.78,2.22,2.22,0,0,1-.27-1.08V41.67h-1.59v3.87a2.22,2.22,0,0,1-.27,1.08,2,2,0,0,1-.73.78,1.83,1.83,0,0,1-1,.29,1.91,1.91,0,0,1-1-.29,2,2,0,0,1-.73-.79,2.12,2.12,0,0,1-.28-1.08h0a3.72,3.72,0,0,0-3.58-3.84h0a3.37,3.37,0,0,0-1.8.52,3.78,3.78,0,0,0-1.31,1.41,3.86,3.86,0,0,0-.49,1.92,4,4,0,0,0,.8,2.41,3.69,3.69,0,0,0,.64.67,3.42,3.42,0,0,0,2.16.77,3.28,3.28,0,0,0,1.8-.52,3.53,3.53,0,0,0,1-1A3.42,3.42,0,0,0,259.68,49a3.13,3.13,0,0,0,1.56.41h0a3.11,3.11,0,0,0,1.58-.41,3.48,3.48,0,0,0,1.21-1.11A3.39,3.39,0,0,0,265.27,49a3.14,3.14,0,0,0,1.59.41h14.75a3.33,3.33,0,0,0,2-.63,3.65,3.65,0,0,0,1-1,4,4,0,0,0,.66-2.22V41.67Zm-26.23,4.95a2,2,0,0,1-.73.78,1.85,1.85,0,0,1-1,.29,1.89,1.89,0,0,1-1-.29,2,2,0,0,1-.73-.78,2.22,2.22,0,0,1-.27-1.08,2.18,2.18,0,0,1,.27-1.07,2.13,2.13,0,0,1,.73-.79,1.89,1.89,0,0,1,1-.29,2.08,2.08,0,0,1,2,2.15A2.22,2.22,0,0,1,257.39,46.62Z"/><rect class="cls-1" x="241.01" y="38.56" width="1.59" height="1.56"/><rect class="cls-1" x="244.57" y="50.94" width="1.59" height="1.56"/><rect class="cls-1" x="283.61" y="50.94" width="1.59" height="1.56"/><rect class="cls-1" x="357.97" y="38" width="1.59" height="1.56"/><rect class="cls-1" x="377.38" y="38" width="1.59" height="1.56"/><polygon class="cls-1" points="342.88 50.38 341.3 50.38 341.3 51.94 342.88 51.94 344.47 51.94 344.47 50.38 342.88 50.38"/><rect class="cls-1" x="331.99" y="41.1" width="1.59" height="1.56"/><path class="cls-1" d="M342.89,41.1V45a2.22,2.22,0,0,1-.27,1.08,2.11,2.11,0,0,1-.73.78,1.79,1.79,0,0,1-1,.29h-2.78v-6H336.5v8.84a2.26,2.26,0,0,1-.27,1.09,2.19,2.19,0,0,1-.72.79,1.83,1.83,0,0,1-1,.29h-3.21a1.83,1.83,0,0,1-1-.29,2.19,2.19,0,0,1-.72-.79,2.29,2.29,0,0,1-.27-1.09V42.68h-1.61V50a3.91,3.91,0,0,0,.49,1.94,3.73,3.73,0,0,0,1.32,1.41,3.37,3.37,0,0,0,1.8.52h3.21a3.37,3.37,0,0,0,1.8-.52,3.73,3.73,0,0,0,1.32-1.41,3.91,3.91,0,0,0,.49-1.94V48.83h2.78a3.36,3.36,0,0,0,1.79-.52A3.78,3.78,0,0,0,344,46.9a4,4,0,0,0,.48-1.93V41.11Z"/><polygon class="cls-1" points="307.67 50.79 307.67 52.49 307.67 54.2 309.12 54.2 309.12 52.49 310.57 52.49 310.57 50.79 309.12 50.79 307.67 50.79"/><polygon class="cls-1" points="322.92 50.79 322.92 52.49 321.47 52.49 321.47 54.2 322.92 54.2 324.37 54.2 324.37 52.49 324.37 50.79 322.92 50.79"/><polygon class="cls-1" points="263.27 38.56 261.68 38.56 261.68 40.12 263.27 40.12 264.86 40.12 264.86 38.56 263.27 38.56"/><path class="cls-1" d="M0,50.06H68.85a15.54,15.54,0,0,0,8-2.13,15.89,15.89,0,0,0,3.9-3.18,14.92,14.92,0,0,0,4.93,3.82,14.53,14.53,0,0,0,6.24,1.48h.27a15.44,15.44,0,0,0,7.94-2.13,16,16,0,0,0,5.78-5.79,15.37,15.37,0,0,0,2.16-8V19.3l-8.46,0V34.19a7.45,7.45,0,0,1-3.69,6.45,7.36,7.36,0,0,1-7.44,0,7.44,7.44,0,0,1-2.68-2.72,7.36,7.36,0,0,1-1-3.73,15.35,15.35,0,0,0-2.16-8,15.87,15.87,0,0,0-5.8-5.79,15.54,15.54,0,0,0-8-2.13H39.62L59,6.59,54.62,0,24.31,18.27v8.45H68.85a7.23,7.23,0,0,1,3.73,1,7.43,7.43,0,0,1,3.7,6.46,7.43,7.43,0,0,1-3.7,6.45,7.23,7.23,0,0,1-3.73,1H0Z"/><path class="cls-1" d="M164.42,41.65h0a7.32,7.32,0,0,1-3.75-1,7.55,7.55,0,0,1-2.75-2.72,7.27,7.27,0,0,1-1-3.73V19.3l-8.38,0V34.19a7.43,7.43,0,0,1-7.46,7.46h-5.6a7.16,7.16,0,0,1-3.71-1,7.57,7.57,0,0,1-2.7-2.72,7.28,7.28,0,0,1-1-3.73V19.26h-8.45V48.05a15.35,15.35,0,0,1-6.78,12.74l4.65,7A23.74,23.74,0,0,0,128.06,48V46.71a15.85,15.85,0,0,0,1.47,1.22,10,10,0,0,0,5.88,2.13h5.67a14.66,14.66,0,0,0,6.51-1.49,15.19,15.19,0,0,0,5.14-4,15,15,0,0,0,5.16,4,14.78,14.78,0,0,0,6.53,1.49h45.75V41.65Z"/><path class="cls-1" d="M4.23,18.26a4.23,4.23,0,1,0,4.23,4.23A4.24,4.24,0,0,0,4.23,18.26Zm0,7.59a3.36,3.36,0,1,1,3.36-3.36A3.36,3.36,0,0,1,4.23,25.85Z"/><path class="cls-1" d="M4.83,22.53v0a1.25,1.25,0,0,0,.89-1.21,1.18,1.18,0,0,0-.37-.9A2,2,0,0,0,4,20a5.8,5.8,0,0,0-1.17.1v4.66h.61V22.73H4c.55,0,.8.27.94.92a5.69,5.69,0,0,0,.32,1.13h.63a8,8,0,0,1-.37-1.3A1.16,1.16,0,0,0,4.83,22.53ZM4,22.27H3.42V20.54a3.21,3.21,0,0,1,.6-.05c.65,0,1.09.27,1.09.88S4.7,22.27,4,22.27Z"/><rect class="cls-1" x="119.61" y="2.36" width="8.45" height="8.45"/><rect class="cls-1" x="140.13" y="57.06" width="16.9" height="8.45"/><polygon class="cls-1" points="91.12 57.05 91.12 65.5 99.57 65.5 99.57 73.96 108.02 73.96 108.02 57.05 91.12 57.05"/></g></svg>