<?xml version="1.0" encoding="utf-8"?>
<!-- Generator: Adobe Illustrator 26.3.1, SVG Export Plug-In . SVG Version: 6.00 Build 0)  -->
<svg version="1.1" id="Layer_1" xmlns="http://www.w3.org/2000/svg" xmlns:xlink="http://www.w3.org/1999/xlink" x="0px" y="0px"
	 viewBox="0 0 80 80" style="enable-background:new 0 0 80 80;" xml:space="preserve">
<style type="text/css">
	.st0{fill:#FFFFFF;}
</style>
<path class="st0" d="M69.4,12.8L50.5,2.7c-6.6-3.6-14.5-3.6-21.1,0L10.6,12.8C4.2,16.1,0.1,22.7,0,29.9v20.3
	c0.1,7.2,4.2,13.8,10.6,17.1l18.9,10.1c6.6,3.5,14.5,3.5,21.1,0l18.9-10.1c6.4-3.3,10.5-9.9,10.6-17.1V29.9
	C79.9,22.7,75.8,16.1,69.4,12.8z M78.5,49.8c-0.1,6.9-4,13.2-10.2,16.4L50.1,76c-6.4,3.4-14,3.4-20.3,0l-18.2-9.8
	C5.5,63,1.5,56.7,1.5,49.8V30.2c0.1-6.9,4-13.3,10.2-16.4L29.8,4c6.4-3.4,14-3.4,20.3,0l18.2,9.8c6.2,3.2,10.1,9.5,10.2,16.4V49.8z"
	/>
<path class="st0" d="M14.1,38.9c0.1-0.3,0.1-0.6,0.2-1c0.9-2.9,3.6-4.9,6.7-4.9h0.6c0.5-5.1,3.3-9.8,7.7-12.6
	c3.2-2.1,6.9-3.3,10.7-3.2c4.6,0,9,1.6,12.4,4.5c3.4,2.8,5.5,6.8,5.9,11.2c0.7,0.1,1.4,0.1,2,0.2c3.1,0.5,5.4,3.1,5.5,6.2
	c0.1,1.7,0,3.5-0.1,5.2c-0.5,3.1-3.2,5.4-6.4,5.5c-0.8,0-1.6,0-2.5,0c-0.8,0.1-1.6-0.5-1.7-1.3c0-0.1,0-0.2,0-0.3v-14
	c0.1-3.3-1.1-6.5-3.3-9c-3.8-4.5-9.9-6.4-15.6-4.8c-6.3,1.6-10,5.5-11.1,11.4c-0.2,0.8-0.2,1.7-0.2,2.5v13.7c0,1.2-0.4,1.7-1.6,1.8
	c-3.8,0.4-7-0.8-8.5-4c-0.2-0.6-0.4-1.2-0.6-1.8L14.1,38.9z"/>
<path class="st0" d="M40,62.6h-2c-1.7,0-3.1-1.3-3.2-3c0.1-1.7,1.5-3,3.1-3c1.4,0,2.8,0,4.2,0c1.7,0,3.1,1.3,3.1,3
	c-0.1,1.7-1.5,3-3.2,3C41.3,62.7,40.7,62.6,40,62.6z"/>
<path class="st0" d="M33,59.7L33,59.7c0,0.5-0.4,0.8-0.9,0.9c-5.2,0.2-9.7-3.2-10.9-7.5c-0.1-0.5,0.2-0.9,0.7-1c0.1,0,0.1,0,0.2,0
	l0,0c0.4,0,0.7,0.2,0.8,0.6c1.5,4.1,4.6,6.2,9.1,6.3C32.5,58.9,32.9,59.2,33,59.7z"/>
</svg>
