<?xml version="1.0" encoding="utf-8"?>
<!-- Generator: Adobe Illustrator 26.3.1, SVG Export Plug-In . SVG Version: 6.00 Build 0)  -->
<svg version="1.1" id="Layer_1" xmlns="http://www.w3.org/2000/svg" xmlns:xlink="http://www.w3.org/1999/xlink" x="0px" y="0px"
	 viewBox="0 0 79.7 80" style="enable-background:new 0 0 79.7 80;" xml:space="preserve">
<style type="text/css">
	.st0{fill:#FFFFFF;}
</style>
<path class="st0" d="M50,42.3c1.3,0.1,2.6,0.4,3.9,0.8c4.8,1.7,8.5,5.5,10,10.3c0.1,0.3,0.1,0.7-0.2,0.9c-8.3,13-25.5,16.8-38.5,8.5
	c-3.3-2.1-6.1-4.9-8.3-8.2c-0.4-0.5-0.5-1.1-0.2-1.6c2.4-6.1,6.8-9.7,13.3-10.6h0.5c0.3,1.8,1.7,3.3,3.4,3.9c4.1,1.8,8.7,1.8,12.8,0
	c0.3-0.2,0.6-0.3,0.9-0.5C48.9,45,49.8,43.8,50,42.3z"/>
<path class="st0" d="M40.2,12.7c5,0.1,9.5,3.3,11.3,7.9c0.9,2.2,1.2,4.7,0.8,7.1c-0.2,2.2-0.7,4.4-1.4,6.5c-0.9,2.8-2.6,5.3-4.8,7.2
	c-1.8,1.6-4.1,2.4-6.5,2.3c-2.2-0.1-4.4-1.1-6-2.6c-1.7-1.5-3-3.4-3.9-5.5c-1.4-3.3-2.1-6.8-2-10.3c0.1-5.8,4.2-10.7,9.8-12
	C38.5,12.9,39.4,12.8,40.2,12.7z"/>
<path class="st0" d="M69.1,12.8L50.3,2.7c-6.5-3.6-14.5-3.6-21,0L10.5,12.8C4.1,16.1,0.1,22.7,0,29.9v20.3
	c0.1,7.2,4.1,13.8,10.5,17.1l18.8,10.1c6.6,3.5,14.4,3.5,21,0l18.8-10.1c6.4-3.3,10.4-9.9,10.5-17.1V29.9
	C79.5,22.7,75.5,16.1,69.1,12.8z M78.1,49.8C78,56.7,74.1,63,68,66.2L49.9,76c-6.3,3.4-13.9,3.4-20.2,0l-18.1-9.8
	C5.4,63,1.5,56.7,1.4,49.8V30.2c0.1-6.9,4-13.3,10.1-16.4L29.7,4C36,0.6,43.6,0.6,49.9,4L68,13.8c6.1,3.2,10,9.5,10.1,16.4
	L78.1,49.8z"/>
</svg>
