<?xml version="1.0" encoding="utf-8"?>
<!-- Generator: Adobe Illustrator 26.0.0, SVG Export Plug-In . SVG Version: 6.00 Build 0)  -->
<svg version="1.1" xmlns="http://www.w3.org/2000/svg" xmlns:xlink="http://www.w3.org/1999/xlink" x="0px" y="0px"
	 viewBox="0 0 411.5 74" style="enable-background:new 0 0 411.5 74;" xml:space="preserve">
<style type="text/css">
	.st0{display:none;fill:#3C3C3B;}
	.st1{fill:#ED1846;}
	.st2{fill:#414042;}
	.st3{fill:#9D9D9C;}
	.st4{fill:#E3E3E3;}
	.st5{fill:#FFFFFF;}
	.st6{fill:#9C9B9B;}
	.st7{fill:#E4003A;}
	.st8{fill:#3C3C3B;}
</style>
<g id="Layer_5">
</g>
<g id="COLOR">
</g>
<g id="logo_SIZPACK">
</g>
<g id="logo_SIZPACK_00000005232477896608490990000012441892336993004709_">
</g>
<g id="SIZPACK_-_W_-_en">
</g>
<g id="SIZPACK_-_r_-_en_00000035507866666016241850000000815191287132632492_">
</g>
<g id="SIZPACK_-_b_-_en">
</g>
<g id="Layer_25">
</g>
<g id="SIZPACK_-_EN">
</g>
<g id="SIZPACK_-_FN">
</g>
<g id="Layer_26">
</g>
<g id="SIZPACK_-_w">
</g>
<g id="SIZPACK_-_r">
</g>
<g id="SIZPACK_-_b">
</g>
<g id="SHIZCK_00000165199290615612801320000010690267766553494925_">
	<g>
		<g id="XMLID_00000122694972220947977250000001418567481455910574_">
			<path id="XMLID_00000067197632674515421530000010482209559171183532_" class="st2" d="M221.9,47.5c-0.2-0.1-0.4-0.3-0.6-0.6
				c-0.1-0.3-0.2-0.5-0.2-0.8c0-0.3,0.1-0.6,0.2-0.8c0.1-0.2,0.3-0.4,0.6-0.6c0.2-0.1,0.5-0.2,0.8-0.2h4.2l0.6-1.7h-4.8
				c-0.6,0-1.1,0.1-1.6,0.4c-0.5,0.3-0.9,0.7-1.1,1.2c-0.3,0.5-0.4,1.1-0.4,1.7c0,0.6,0.1,1.2,0.4,1.7c0.3,0.5,0.7,0.9,1.1,1.2
				c0.5,0.3,1,0.5,1.6,0.5h7.5v-1.7h-7.5C222.4,47.7,222.1,47.6,221.9,47.5z"/>
			<path id="XMLID_00000047780906946242735390000018191899542688547747_" class="st2" d="M248.1,45.5c0,0.4-0.1,0.8-0.3,1.1
				c-0.2,0.3-0.4,0.6-0.7,0.8c-0.3,0.2-0.6,0.3-1,0.3h-1.5c-0.4,0-0.7-0.1-1-0.3c-0.3-0.2-0.5-0.5-0.7-0.8c-0.2-0.3-0.3-0.7-0.3-1.1
				v-3.9H241v3.9c0,0.4-0.1,0.8-0.3,1.1c-0.2,0.3-0.4,0.6-0.7,0.8c-0.3,0.2-0.6,0.3-1,0.3c-0.4,0-0.7-0.1-1-0.3
				c-0.3-0.2-0.6-0.5-0.7-0.8c-0.2-0.3-0.3-0.7-0.3-1.1c0-0.7-0.2-1.3-0.5-1.9c-0.3-0.6-0.8-1.1-1.3-1.4c-0.5-0.3-1.2-0.5-1.8-0.5
				h-1.7v1.7h1.7c0.4,0,0.7,0.1,1,0.3c0.3,0.2,0.6,0.5,0.7,0.8c0.2,0.3,0.3,0.7,0.3,1.1c0,0.4-0.1,0.8-0.3,1.1
				c-0.2,0.3-0.4,0.6-0.7,0.8c-0.3,0.2-0.6,0.3-1,0.3h-2.1v1.7h2.1c0.6,0,1.1-0.1,1.6-0.4c0.5-0.3,0.9-0.6,1.2-1.1
				c0.3,0.5,0.7,0.8,1.2,1.1c0.5,0.3,1,0.4,1.6,0.4l0,0h0c0.6,0,1.1-0.1,1.6-0.4c0.5-0.3,0.9-0.6,1.2-1.1c0.3,0.5,0.7,0.8,1.2,1.1
				c0.5,0.3,1,0.4,1.6,0.4h1.5c0.6,0,1.2-0.2,1.8-0.5c0.6-0.3,1-0.8,1.3-1.4c0.3-0.6,0.5-1.2,0.5-1.9v-3.9h-1.6V45.5z"/>
			<path id="XMLID_00000044861322967194996310000005637986237958519741_" class="st2" d="M290.2,42.2c-0.5,0.3-1,0.8-1.3,1.4
				c-0.3,0.6-0.5,1.2-0.5,1.9c0,0.7,0.2,1.3,0.5,1.9c0.3,0.6,0.8,1.1,1.3,1.4c0.5,0.4,1.1,0.5,1.7,0.5h1.8l0-0.7l-6,4.3l0.9,1.4l7-5
				l0-3.8c0-2.1-1.6-3.9-3.6-3.9l0,0C291.3,41.7,290.7,41.8,290.2,42.2z M294,47.7h-2c-0.4,0-0.7-0.1-1-0.3
				c-0.3-0.2-0.5-0.5-0.7-0.8c-0.2-0.4-0.3-0.8-0.3-1.2c0-0.3,0.1-0.6,0.2-0.8c0.2-0.4,0.4-0.7,0.8-0.9c0.3-0.2,0.6-0.3,1-0.3l0,0
				c1.1,0,2,1,2,2.2V47.7z"/>
			<path id="XMLID_00000071525900958722035260000003031813987516403847_" class="st2" d="M298.8,49.4h8.4c0.7,0,1.3-0.2,1.8-0.5
				c0.6-0.3,1-0.8,1.3-1.4c0.3-0.6,0.5-1.2,0.5-1.9v-3.9h-1.6v3.9c0,0.4-0.1,0.8-0.3,1.1c-0.2,0.3-0.4,0.6-0.7,0.8
				c-0.3,0.2-0.6,0.3-1,0.3h-8.4"/>
			<path id="XMLID_00000136372648741111955690000014686434391352612278_" class="st2" d="M322.7,42.2c-0.6-0.3-1.2-0.5-1.8-0.5H318
				l-0.4,1.7h3.3c0.4,0,0.7,0.1,1,0.3c0.3,0.2,0.5,0.5,0.7,0.8c0.2,0.3,0.3,0.7,0.3,1.1v2.2H316c-0.4,0-0.7-0.1-1-0.3
				c-0.3-0.2-0.6-0.5-0.7-0.8c-0.2-0.3-0.3-0.7-0.3-1.1v-8.8h-1.6v8.8c0,0.7,0.2,1.3,0.5,1.9c0.3,0.6,0.8,1.1,1.3,1.4
				c0.6,0.3,1.2,0.5,1.8,0.5h8.5v-3.9c0-0.7-0.2-1.3-0.5-1.9C323.7,43,323.3,42.5,322.7,42.2z"/>
			<g>
				<rect x="347" y="36.2" class="st2" width="1.6" height="9.4"/>
				<path class="st2" d="M358.2,41.1V45c0,0.4-0.1,0.8-0.3,1.1c-0.2,0.3-0.4,0.6-0.7,0.8c-0.3,0.2-0.6,0.3-1,0.3s-0.7-0.1-1-0.3
					c-0.3-0.2-0.5-0.5-0.7-0.8c-0.2-0.3-0.3-0.7-0.3-1.1v-8.8h-1.6V45c0,0.4-0.1,0.8-0.3,1.1c-0.2,0.3-0.4,0.6-0.7,0.8
					c-0.3,0.2-0.6,0.3-1,0.3h-2h0H347h0h-0.9v1.7h4.5c0.7,0,1.3-0.2,1.8-0.5c0.4-0.3,0.7-0.6,1-1c0.3,0.4,0.7,0.8,1.2,1.1
					c0.5,0.3,1,0.4,1.5,0.4l0,0h0.1c0.6,0,1.2-0.2,1.8-0.5c0.6-0.3,1-0.8,1.3-1.4c0.3-0.6,0.5-1.2,0.5-1.9v-3.9L358.2,41.1z"/>
			</g>
			<rect x="361.4" y="36.2" class="st2" width="1.6" height="12.6"/>
			<polygon class="st2" points="363,33.6 359.3,33.6 359.3,35 365.1,35 365.1,33.6 363,32.7 			"/>
			<path class="st2" d="M377.4,45c0,0.4-0.1,0.8-0.3,1.1c-0.2,0.3-0.4,0.6-0.7,0.8c-0.3,0.2-0.6,0.3-1,0.3c-0.4,0-0.7-0.1-1-0.3
				c-0.3-0.2-0.6-0.5-0.7-0.8c-0.2-0.3-0.3-0.7-0.3-1.1l0,0v0c0-2.1-1.6-3.8-3.6-3.8h0c-0.6,0-1.2,0.2-1.8,0.5
				c-0.6,0.3-1,0.8-1.3,1.4c-0.3,0.6-0.5,1.2-0.5,1.9c0,0.9,0.3,1.7,0.8,2.4c0.2,0.3,0.4,0.5,0.6,0.7c0.6,0.5,1.4,0.8,2.2,0.8
				c0.7,0,1.3-0.2,1.8-0.5c0.4-0.3,0.8-0.6,1-1c0.3,0.5,0.7,0.8,1.2,1.1c0.5,0.3,1,0.4,1.5,0.4l0,0h0.1c0.8,0,1.5-0.3,2.2-0.8
				c0.2-0.2,0.5-0.4,0.6-0.7c0.5-0.7,0.8-1.5,0.8-2.4v-3.9l-1.6,0V45z M371.8,45c0,0.4-0.1,0.8-0.3,1.1c-0.2,0.3-0.4,0.6-0.7,0.8
				c-0.3,0.2-0.6,0.3-1,0.3s-0.7-0.1-1-0.3c-0.3-0.2-0.6-0.5-0.7-0.8c-0.2-0.3-0.3-0.7-0.3-1.1c0-0.4,0.1-0.7,0.3-1.1
				c0.2-0.3,0.4-0.6,0.7-0.8c0.3-0.2,0.6-0.3,1-0.3l0,0C370.9,42.8,371.8,43.8,371.8,45L371.8,45z"/>
			<path class="st2" d="M391.6,41.6c-0.6-0.3-1.2-0.5-1.8-0.5l0,0c-2,0-3.6,1.7-3.6,3.9l0,0c0,0.4-0.1,0.8-0.3,1.1
				c-0.2,0.3-0.4,0.6-0.7,0.8c-0.3,0.2-0.6,0.3-1,0.3c-0.4,0-0.7-0.1-1-0.3c-0.3-0.2-0.6-0.5-0.7-0.8c-0.2-0.3-0.3-0.7-0.3-1.1v-8.8
				h-1.6V45c0,0.8,0.2,1.6,0.7,2.3c0.2,0.3,0.4,0.5,0.6,0.7c0.7,0.6,1.4,0.9,2.2,0.9l0,0h0c0.6,0,1.1-0.1,1.6-0.4
				c0.5-0.3,0.9-0.6,1.2-1.1c0.3,0.5,0.7,0.8,1.2,1.1c0.5,0.3,1,0.4,1.6,0.4c0.7,0,1.3-0.2,1.8-0.5c0.6-0.3,1-0.8,1.3-1.4
				c0.3-0.6,0.5-1.2,0.5-1.9c0-0.7-0.2-1.3-0.5-1.9C392.5,42.4,392.1,42,391.6,41.6z M391.5,46.1c-0.2,0.3-0.4,0.6-0.7,0.8
				c-0.3,0.2-0.6,0.3-1,0.3c-0.4,0-0.7-0.1-1-0.3c-0.3-0.2-0.5-0.5-0.7-0.8c-0.2-0.3-0.3-0.7-0.3-1.1v0c0-1.2,0.9-2.1,2-2.1l0,0
				c0.4,0,0.7,0.1,1,0.3c0.3,0.2,0.5,0.5,0.7,0.8c0.2,0.3,0.3,0.7,0.3,1.1C391.7,45.4,391.7,45.7,391.5,46.1z"/>
			<path class="st2" d="M398.5,47.1c-0.4,0-0.7-0.1-1-0.3c-0.3-0.2-0.6-0.5-0.7-0.8c-0.2-0.3-0.3-0.7-0.3-1.1v-8.8h-1.6V45
				c0,0.7,0.2,1.3,0.5,1.9c0.3,0.6,0.8,1.1,1.3,1.4c0.5,0.3,1.1,0.5,1.8,0.5l0,0h0h13v-1.7H398.5z"/>
			<path id="XMLID_00000047739241196790307990000001829740653807993790_" class="st2" d="M283.6,41.7v3.9c0,0.4-0.1,0.8-0.3,1.1
				c-0.2,0.3-0.4,0.6-0.7,0.8c-0.3,0.2-0.6,0.3-1,0.3h-14.8c-0.4,0-0.7-0.1-1-0.3c-0.3-0.2-0.5-0.5-0.7-0.8
				c-0.2-0.3-0.3-0.7-0.3-1.1l0-3.9l-1.6,0v3.9c0,0.4-0.1,0.8-0.3,1.1c-0.2,0.3-0.4,0.6-0.7,0.8c-0.3,0.2-0.6,0.3-1,0.3
				c-0.4,0-0.7-0.1-1-0.3c-0.3-0.2-0.6-0.5-0.7-0.8c-0.2-0.3-0.3-0.7-0.3-1.1l0,0v0c0-2.1-1.6-3.8-3.6-3.8h0c-0.6,0-1.2,0.2-1.8,0.5
				c-0.6,0.3-1,0.8-1.3,1.4c-0.3,0.6-0.5,1.2-0.5,1.9c0,0.9,0.3,1.7,0.8,2.4c0.2,0.3,0.4,0.5,0.6,0.7c0.6,0.5,1.4,0.8,2.2,0.8
				c0.7,0,1.3-0.2,1.8-0.5c0.4-0.3,0.8-0.6,1-1c0.3,0.5,0.7,0.8,1.2,1.1c0.5,0.3,1,0.4,1.6,0.4l0,0h0c0.6,0,1.1-0.1,1.6-0.4
				c0.5-0.3,0.9-0.6,1.2-1.1c0.3,0.5,0.7,0.8,1.2,1.1c0.5,0.3,1,0.4,1.6,0.4h14.8c0.7,0,1.4-0.2,2-0.6c0.4-0.3,0.7-0.6,1-1
				c0.4-0.7,0.7-1.4,0.7-2.2v-3.9H283.6z M257.4,46.6c-0.2,0.3-0.4,0.6-0.7,0.8c-0.3,0.2-0.6,0.3-1,0.3c-0.4,0-0.7-0.1-1-0.3
				c-0.3-0.2-0.6-0.5-0.7-0.8c-0.2-0.3-0.3-0.7-0.3-1.1c0-0.4,0.1-0.7,0.3-1.1c0.2-0.3,0.4-0.6,0.7-0.8c0.3-0.2,0.6-0.3,1-0.3
				c1.1,0,2,1,2,2.1C257.7,45.9,257.6,46.3,257.4,46.6z"/>
			<rect id="XMLID_00000003809460368770577330000005122754796164468873_" x="241" y="38.6" class="st2" width="1.6" height="1.6"/>
			
				<rect id="XMLID_00000150064641474979651910000010080424675963832999_" x="244.6" y="50.9" class="st2" width="1.6" height="1.6"/>
			
				<rect id="XMLID_00000031175880053293885670000011719824283084355510_" x="283.6" y="50.9" class="st2" width="1.6" height="1.6"/>
			<rect x="358" y="38" class="st2" width="1.6" height="1.6"/>
			<rect x="377.4" y="38" class="st2" width="1.6" height="1.6"/>
			<polygon class="st2" points="342.9,50.4 341.3,50.4 341.3,51.9 342.9,51.9 344.5,51.9 344.5,50.4 			"/>
			<rect x="332" y="41.1" class="st2" width="1.6" height="1.6"/>
			<path class="st2" d="M342.9,41.1V45c0,0.4-0.1,0.8-0.3,1.1c-0.2,0.3-0.4,0.6-0.7,0.8c-0.3,0.2-0.6,0.3-1,0.3h-1.5h-1.3v-6h-1.6
				v8.8c0,0.4-0.1,0.8-0.3,1.1c-0.2,0.3-0.4,0.6-0.7,0.8c-0.3,0.2-0.6,0.3-1,0.3h-1.9v0h-1.3c-0.4,0-0.7-0.1-1-0.3
				c-0.3-0.2-0.5-0.5-0.7-0.8c-0.2-0.3-0.3-0.7-0.3-1.1v-7.3h-1.6v4.4v1.7V50c0,0.7,0.2,1.3,0.5,1.9c0.3,0.6,0.8,1.1,1.3,1.4
				c0.6,0.3,1.2,0.5,1.8,0.5h1.9v0h1.3c0.7,0,1.3-0.2,1.8-0.5c0.6-0.3,1-0.8,1.3-1.4c0.3-0.6,0.5-1.2,0.5-1.9v-1.1h1.3h1.5
				c0.6,0,1.2-0.2,1.8-0.5c0.6-0.3,1-0.8,1.3-1.4c0.3-0.6,0.5-1.2,0.5-1.9v-3.9L342.9,41.1z"/>
			<g id="XMLID_00000145025978324505919470000017124846380287909054_">
				<polygon class="st2" points="307.7,50.8 307.7,52.5 307.7,54.2 309.1,54.2 309.1,52.5 310.6,52.5 310.6,50.8 309.1,50.8 				"/>
				<polygon class="st2" points="322.9,50.8 322.9,52.5 321.5,52.5 321.5,54.2 322.9,54.2 324.4,54.2 324.4,52.5 324.4,50.8 				"/>
			</g>
			<polygon id="XMLID_00000008835551726555745960000002245465771086370451_" class="st2" points="263.3,38.6 261.7,38.6 261.7,40.1 
				263.3,40.1 264.9,40.1 264.9,38.6 			"/>
		</g>
		<g>
			<path class="st2" d="M0,50.1h68.9c2.9,0,5.5-0.7,8-2.1c1.5-0.9,2.8-1.9,3.9-3.2c1.4,1.6,3,2.9,4.9,3.8c2,1,4,1.4,6.2,1.5l0,0h0.3
				c2.9,0,5.5-0.7,7.9-2.1c2.4-1.4,4.4-3.3,5.8-5.8c1.4-2.4,2.2-5.1,2.2-8V19.3l-8.5,0v14.9c0,1.3-0.3,2.6-1,3.7
				c-0.7,1.1-1.6,2-2.7,2.7c-1.1,0.7-2.4,1-3.7,1c-1.3,0-2.6-0.3-3.7-1c-1.1-0.7-2-1.6-2.7-2.7c-0.7-1.1-1-2.4-1-3.7
				c0-2.9-0.7-5.5-2.2-8c-1.4-2.4-3.4-4.4-5.8-5.8c-2.4-1.4-5.1-2.1-8-2.1H39.6L59,6.6L54.6,0L24.3,18.3v8.5h44.5
				c1.3,0,2.6,0.3,3.7,1c1.1,0.7,2,1.6,2.7,2.7c0.7,1.1,1,2.4,1,3.7c0,1.3-0.3,2.6-1,3.7c-0.7,1.1-1.6,2-2.7,2.7
				c-1.1,0.7-2.4,1-3.7,1H0V50.1z"/>
			<path class="st2" d="M164.4,41.6L164.4,41.6L164.4,41.6c-1.3,0-2.6-0.3-3.7-1c-1.2-0.7-2.1-1.6-2.7-2.7c-0.7-1.1-1-2.4-1-3.7
				V19.3l-8.4,0v14.9c0,1.3-0.3,2.6-1,3.7c-0.7,1.1-1.6,2-2.7,2.7c-1.1,0.7-2.4,1-3.8,1h-5.6c-1.3,0-2.6-0.3-3.7-1
				c-1.1-0.7-2-1.6-2.7-2.7c-0.7-1.1-1-2.4-1-3.7V19.3h-8.5v28.8c0,5.1-2.5,9.9-6.8,12.7l4.6,7c6.6-4.4,10.6-11.8,10.6-19.8v-1.3
				c0.5,0.4,1,0.8,1.5,1.2c1.9,1.4,3.9,2.1,5.9,2.1l0,0h5.7c2.3,0,4.5-0.5,6.5-1.5c2-1,3.7-2.3,5.1-4c1.4,1.7,3.1,3,5.2,4
				c2,1,4.2,1.5,6.5,1.5l0,0l0,0h45.8v-8.4L164.4,41.6z"/>
			<g>
				<g>
					<g>
						<g>
							<path class="st2" d="M4.2,18.3c-2.3,0-4.2,1.9-4.2,4.2c0,2.3,1.9,4.2,4.2,4.2c2.3,0,4.2-1.9,4.2-4.2
								C8.5,20.2,6.6,18.3,4.2,18.3z M4.2,25.8c-1.9,0-3.4-1.5-3.4-3.4s1.5-3.4,3.4-3.4c1.9,0,3.4,1.5,3.4,3.4S6.1,25.8,4.2,25.8z"
								/>
						</g>
						<g>
							<path class="st2" d="M4.8,22.5L4.8,22.5c0.5-0.2,0.9-0.6,0.9-1.2c0-0.4-0.1-0.7-0.4-0.9C5.1,20.1,4.6,20,4,20
								c-0.4,0-0.9,0-1.2,0.1v4.7h0.6v-2H4c0.6,0,0.8,0.3,0.9,0.9c0.1,0.6,0.2,1,0.3,1.1h0.6c-0.1-0.2-0.2-0.6-0.4-1.3
								C5.4,23,5.2,22.7,4.8,22.5z M4,22.3H3.4v-1.7c0.1,0,0.3-0.1,0.6-0.1c0.6,0,1.1,0.3,1.1,0.9C5.1,21.9,4.7,22.3,4,22.3z"/>
						</g>
					</g>
				</g>
			</g>
			<rect x="119.6" y="2.4" class="st2" width="8.5" height="8.5"/>
			<rect x="140.1" y="57.1" class="st2" width="16.9" height="8.5"/>
			<polygon class="st2" points="91.1,57.1 91.1,65.5 99.6,65.5 99.6,74 108,74 108,57.1 			"/>
		</g>
	</g>
</g>
<g id="SHIZCK_-_r">
</g>
<g id="SHIZCK_-_b">
</g>
<g id="SHIZCHAP_-_w">
</g>
<g id="Layer_22">
</g>
<g id="Layer_23">
</g>
<g id="Layer_24">
</g>
<g id="SHIZCHAP_-_r">
</g>
<g id="SHIZCHAP_-_b">
</g>
<g id="SHIZCHAP_00000090255742824116233530000012864096188685801401_">
</g>
<g id="SHIZCHAP_-_r_00000114038307770599909190000002105082259232241590_">
</g>
<g id="SHIZCHAP_-_b_00000146474583134462286530000006053291822634194595_">
</g>
</svg>
