<?xml version="1.0" encoding="utf-8"?>
<!-- Generator: Adobe Illustrator 26.1.0, SVG Export Plug-In . SVG Version: 6.00 Build 0)  -->
<svg version="1.1" id="Layer_1" xmlns="http://www.w3.org/2000/svg" xmlns:xlink="http://www.w3.org/1999/xlink" x="0px" y="0px"
	 viewBox="0 0 253.8 274.3" style="enable-background:new 0 0 253.8 274.3;" xml:space="preserve">
<style type="text/css">
	.st0{fill:#313031;}
</style>
<g>
	<path class="st0" d="M205.3,274h-45.6c-2.3,0-5.3-0.9-6.7-5l-0.1-0.5c-2.8-12-4.7-24.4-5.7-36.7c-1-13.2,1.8-26.3,8.1-38
		c4.1-6.8,9.8-12.3,16.7-15.9c4.8-2.8,9.8-5.7,14.7-8.5l11.7-6.8c4.5-2.8,10.1-3.4,15.2-1.5c4.4,1.5,7.7,5,9.2,9.2l0-32.5
		c-0.1-2.2,0.1-4.5,0.4-6.8c0.7-8.1,8.2-14.2,16.6-13.5c2.9,0.3,5.7,1.4,8,3.2c4.2,3.7,6.3,8.7,6,14l0,48.7c-0.1,4-0.9,7.7-2.3,11.2
		c-3,7-7,13.3-11.7,19l-3.4,3.8c-5.6,6.2-11.3,12.6-17,19.1c-5.2,6.1-9.2,13.1-11.7,20.8l-0.2,0.6c-1.6,3.4-2.4,7.1-2.3,10.9
		L205.3,274z M162.2,263.8h33c0.4-3.4,1.4-6.8,2.8-9.9c3-8.8,7.5-16.8,13.6-23.9c5.7-6.6,11.5-13,17.1-19.3l3.3-3.6
		c4-4.8,7.4-10.3,10-16.2c0.9-2.3,1.4-4.8,1.5-7.5l0-48.8c0.1-2.4-0.8-4.5-2.4-5.9c-0.5-0.4-1.5-0.8-2.4-0.9
		c-2.8-0.3-5.3,1.8-5.5,4.6c-0.3,2-0.4,3.7-0.4,5.4l0,32.7c0.4,8.9-3.7,17.6-11,23.2c-3.2,2.7-6.7,5.1-10,7.4l-1.4,1
		c-6.4,4.2-12.3,7.9-18.2,11.6c-0.2,0.2-0.4,0.3-0.7,0.5c-2,1.3-4.3,1.7-6.6,1.3c-2.3-0.5-4.3-1.8-5.6-3.8l-0.2-0.3
		c-1.3-2.4-1.5-4.8-0.9-7.2c0.6-2.2,2-4,4-5.2c3.5-2.7,7.3-5.3,11.1-7.6c2.8-1.7,5.6-3.6,8.4-5.4c3.2-2.1,6.4-4.2,9.6-6.1
		c1.5-0.9,2.3-2.4,2.1-4c-0.2-2.4-1.5-4.1-3.4-4.8c-2.2-0.8-4.6-0.6-6.5,0.6l-11.9,6.9c-4.9,2.8-9.8,5.7-14.8,8.6
		c-5.4,2.9-9.7,7-12.8,12.1c-5.2,9.7-7.6,20.9-6.8,32.2C158.2,242.1,159.8,253.1,162.2,263.8z"/>
</g>
<g>
	<path class="st0" d="M54.4,274.3h-5.1v-0.4l-0.5,0l-0.3-4.8c-0.1-1.9-0.3-3.8-0.7-5.6c-1.1-6.2-3.4-12-6.8-17.3
		c-5.5-8.5-11.9-16.6-18.9-24c-4.7-5-9.2-10.3-13.3-15.9c-6-7.6-9.2-17.3-8.8-27.1L0,135c-0.1-3.6,1-7.3,3.1-10.4
		c3.3-4.5,8.7-6.8,14.1-6.2c5.6,0.4,10.6,4.2,12.5,9.8c0.8,2.4,1.1,4.9,1,7.5l0,33.6c0,0.4,0,0.7,0,1.1c0.1-0.3,0.2-0.6,0.3-0.8
		c3.2-7.3,11.2-11.1,18.7-8.9c2.8,0.9,5.3,2.1,7.7,3.5c5.5,3.1,11,6.3,16.5,9.6l6.6,3.9c12.7,7,21.5,19.4,24.1,33.8
		c2.1,10.4,2.2,21.1,0.4,31.7c-0.9,5.4-1.9,10.7-2.8,16l-1.6,9.3c-0.4,3.2-3,5.6-6.2,5.8L54.4,274.3z M53.7,274L53.7,274L53.7,274z
		 M58.3,264.2H91l1.2-6.8c0.9-5.3,1.9-10.5,2.8-15.9c1.6-9.3,1.5-18.8-0.3-28.1c-2.1-11.5-9-21.2-19.2-26.8l-6.7-4
		c-5.5-3.2-10.9-6.4-16.5-9.6c-1.8-1.1-3.6-2-5.5-2.6c-2.4-0.7-5.3,0.7-6.4,3.2c-0.9,2.2,0.1,5,2.3,6.2L43,180l10.2,6.8
		c3.3,2.3,6.5,4.4,9.8,6.5c2.7,1.8,5.5,3.6,8.3,5.5c1.6,1.2,2.8,2.6,3.5,4.2c1.7,3.8,0.5,8.2-2.7,10.5c-3.4,2.2-7.4,2.2-10.6,0.2
		c-9.7-5.5-19.3-11.8-28.4-18.6c-8.3-5.8-13.2-15.8-12.5-26.1l0-33.6c0.1-1.6-0.1-2.8-0.5-4c-0.6-1.7-2-2.8-3.7-2.9
		c-2.1-0.2-3.9,0.5-4.9,2c-0.8,1.2-1.3,2.8-1.2,4.4l0,44.5c-0.2,7.6,2.1,14.9,6.7,20.8c4,5.3,8.2,10.3,12.7,15.1
		c7.4,7.9,14.1,16.4,20,25.4c4.1,6.4,6.9,13.5,8.2,20.9C58,262.5,58.2,263.3,58.3,264.2z"/>
</g>
<g>
	<path class="st0" d="M126.8,85.2c-1.2,0-2.5-0.3-3.6-1C107,74.7,49.2,42,49.2,42l7.9-4.7c1.5-0.9,3-1.8,4.5-2.7l1.2-0.7
		C81.5,23.5,99.9,12.8,117,2.8c5.9-3.8,13.8-3.8,19.9,0.1c19,11.2,63.5,38.7,63.5,38.7s-68,41.1-69.9,42.4
		C129.4,84.8,128.1,85.2,126.8,85.2z M124.9,75.5C124.9,75.6,124.9,75.6,124.9,75.5C124.9,75.6,124.9,75.6,124.9,75.5z M69.6,41.7
		c0.8,0.5,41.4,23.6,57.1,32.7c1.6-1,3.3-2,5.1-3l0.9-0.5c10-5.7,43.8-25.2,50.7-29.2c-16.9-9.7-34.6-20-51.8-30.1
		c-2.9-1.9-6.5-1.9-9.3-0.1C105.5,21.3,87.7,31.6,69.6,41.7z"/>
</g>
<g>
	<path class="st0" d="M136.6,172.1v-69.6c-0.2-2.9,1.4-5.5,4-6.7c8.3-4.7,67.9-40.9,67.9-40.9v62.2c0.5,6.6-3.2,12.8-9.1,15.7
		C182.3,142.5,136.6,172.1,136.6,172.1z M146.8,104v47.5c15.6-9.1,31.6-18.5,47.7-27.7l0.4-0.2c2.3-1.1,3.7-3.4,3.5-5.9l0-0.4V74.6
		c-9.3,5.2-18.6,10.6-27.9,15.9C162.6,95,154.7,99.5,146.8,104z"/>
</g>
<g>
	<path class="st0" d="M117.4,172.1c0,0-61.3-38.3-62.9-39.2c-5.7-3-9.3-9.3-9-15.9l-0.4-59.5c0,0,49.8,27.8,68.3,38.3
		c2.5,1.2,4.1,3.9,3.9,6.7V172.1z M55.4,74.1c0.1,1.8,0.3,43.2,0.3,43.2c-0.1,2.9,1.3,5.4,3.7,6.7c1.7,1,42.9,28.4,47.8,31.4V104
		C89.6,94,72.2,83.9,55.4,74.1z"/>
</g>
</svg>
